<svg xmlns="http://www.w3.org/2000/svg" width="610" height="298" viewBox="0 0 610 298">
  <g fill="#FFF">
    <path d="M85,0 L112,30 L112,67 L74,67 L74,40 L41,40 L41,85 L51,85 L51,123 L28,123 L0,94 L0,31 L28,0 L85,0 Z M169,0 L169,177 L181,177 L181,216 L159,216 L128,185 L128,0 L169,0 Z M204,0 L245,0 L245,185 L214,216 L192,216 L192,177 L204,177 L204,0 Z M300,0 L300,216 L259,216 L259,0 L300,0 Z M341,0 L373,30 L373,112 L343,142 L313,142 L313,102 L331,102 L331,40 L313,40 L313,0 L341,0 Z M479,0 L479,40 L429,40 L429,176 L479,176 L479,216 L388,216 L388,0 L479,0 Z M536,0 L536,216 L495,216 L495,0 L536,0 Z M578,0 L610,31 L610,82 L585,108 L610,134 L610,216 L568,216 L568,129 L547,129 L547,89 L568,89 L568,40 L547,40 L547,0 L578,0 Z M471,82 L471,122 L441,122 L441,82 L471,82 Z M82,85 L112,115 L112,183 L84,216 L27,216 L0,186 L0,149 L38,149 L38,176 L70,176 L70,123 L63,123 L63,85 L82,85 Z M161,237 L161,248 L96,248 L96,288 L146,288 L146,273 L123,273 L123,263 L161,263 L161,298 L91,298 C86.581722,298 83,294.418278 83,290 L83,245 C83,240.581722 86.581722,237 91,237 L161,237 Z M251,245 L251,266 C251,270.418278 247.418278,274 243,274 L231,274 L252,298 L236,297 L213,273 L189,273 L189,298 L176,298 L176,237 L243,237 C247.418278,237 251,240.581722 251,245 Z M237,249 L190,249 L190,262 L237,262 L237,249 Z M317,237 L347,298 L332,298 L307,248 L300,248 L276,298 L260,298 L291,237 L317,237 Z M427,237 L427,248 L369,248 L369,262 L419,262 L420,273 L369,273 L369,298 L356,298 L356,237 L427,237 Z M457,237 L476,257 L495,237 L515,237 L487,266 L518,298 L498,298 L476,278 L454,298 L434,298 L465,266 L437,237 L457,237 Z"/>
  </g>
</svg>
